<svg xmlns="http://www.w3.org/2000/svg" width="1024" height="1024" viewBox="0 0 1024 1024"><rect width="1024" height="1024" fill="#fff" rx="192"/><path fill="#c4713a" d="M322.3 284.8c-13.4.4-14 2.1-1.5 3.7 11.5 1.5 25.7 11.6 31.6 22.5 6.4 11.7 6.1 6.3 6.1 128.2 0 61 .2 110.8.5 110.7.3 0 3.7-3.9 7.5-8.6 13-15.9 37.2-37.1 59.3-52l11.2-7.7V293h25.3c37.1 0 58.1 2.2 74.6 7.6 34.7 11.5 56.8 37.2 65.3 75.9.8 3.7 1.3 12.5 1.2 23 0 18.4-1.6 27.7-6.9 40.6-8.2 20.3-25.5 38.5-45 47.5-7.5 3.5-22.2 7.3-27.9 7.4-2 0-2.7.3-2 1 2 2 21.3 4.2 40.4 4.7 29.4.8 47.5-2.5 66.3-11.8 10.6-5.3 15.9-9 24.6-17.3 13.2-12.7 21.9-27.7 26.3-45.2 3-12 3.3-37.8.4-49.9-11.7-50.8-56.9-81.6-132.1-90.1-13-1.4-28.1-1.7-115-1.8-55 0-104.6 0-110.2.2"/><path fill="#c4713a" d="M482.2 505.5c-8.8 1.6-20 4.9-26.2 7.8-31.2 14.5-63.3 51-114.9 130.7-16.9 26.2-37.1 58.3-37.1 59.1 0 .5 3.5.9 7.8.9h7.8l18.1-30.3c37.9-63.2 63-98.7 86.7-122.3 26-25.9 42.8-33.3 61.9-27.4 8.7 2.7 17.1 8.5 25.7 17.8 8.1 8.6 15.4 19.4 36 53.2 17.6 28.9 29.2 46.7 37.3 57.3 22.2 29.2 45.5 44.3 78.9 50.8 10.2 2.1 14.4 2.3 44.2 2.3 25.5.1 33-.2 33.3-1.2.3-.7-.5-1.2-2-1.2-1.4 0-6.4-1.1-11.1-2.5-21.4-6.2-37.9-18.4-56.4-41.8-9.2-11.6-17.5-23.5-42.2-60.7-27.2-40.8-31.6-46.8-44.4-59.5-19.2-19.1-38.8-29.5-62.3-33-11.9-1.8-31.2-1.8-41.1 0"/></svg>